<?xml version="1.0" encoding="utf-8"?>
<!-- Generator: Adobe Illustrator 16.0.0, SVG Export Plug-In . SVG Version: 6.00 Build 0)  -->
<!DOCTYPE svg PUBLIC "-//W3C//DTD SVG 1.1//EN" "http://www.w3.org/Graphics/SVG/1.1/DTD/svg11.dtd">
<svg version="1.1" id="Layer_1" xmlns="http://www.w3.org/2000/svg" xmlns:xlink="http://www.w3.org/1999/xlink" x="0px" y="0px"
	 width="122.25px" height="71px" viewBox="0 0 122.25 71" enable-background="new 0 0 122.25 71" xml:space="preserve">
<g>
	<polygon fill="#FFFFFF" points="59.446,25.456 58.285,24.808 58.962,28.911 59.041,29.388 62.991,53.38 63.034,53.646 
		63.673,57.501 64.374,56.478 78.157,36.257 	"/>
	<path fill="#FFFFFF" d="M82.773,56.747l27.3-4.498l0.164-0.027l4.494-0.744l-1.172-0.781L93.765,35.782l-4.588,5.226
		c-0.271,0.307-0.634,0.495-1.023,0.561c-0.386,0.064-0.799-0.001-1.148-0.205l-6.027-3.479l-13.963,20.48l-0.701,1.089l4.34-0.711
		l0.23-0.04L82.773,56.747"/>
	<path fill="#FFFFFF" d="M61.525,22.938l26.036,15.033l19.835-22.589l0.759-0.926l-4.031,0.667L64.543,21.64
		c-0.046,0.009-0.095,0.014-0.134,0.026l-3.913,0.692L61.525,22.938z"/>
	<path fill="#FFFFFF" d="M111.729,20.159l-0.668-4.059l-0.889,1L95.916,33.333l19.54,14.729l0.988,0.696l-0.629-3.809l-0.014-0.076
		l-4.063-24.659c-0.002-0.023-0.005-0.042-0.012-0.06L111.729,20.159z"/>
</g>
<g>
	<polygon fill="#FFFFFF" points="17.716,33.682 17.669,32.999 16.101,34.441 15.919,34.607 6.758,43.014 6.656,43.105 5.183,44.457 
		5.818,44.471 18.33,44.709 	"/>
	<path fill="#FFFFFF" d="M22.903,51.258l-3.521-0.5c-0.208-0.032-0.39-0.133-0.528-0.285c-0.134-0.145-0.224-0.336-0.234-0.547
		l-0.196-3.552L5.751,46.13l-0.664,0.008l1.519,1.655l0.082,0.088l13.728,14.963l0.061,0.064l1.576,1.719l0.008-0.723L22.903,51.258
		z"/>
	<path fill="#FFFFFF" d="M19.375,33.867l0.854,15.348l15.218,2.166l0.609,0.066l-1.414-1.537l-13.87-15.117
		c-0.016-0.017-0.03-0.033-0.048-0.05l-1.391-1.478L19.375,33.867z"/>
	<path fill="#FFFFFF" d="M34.617,54.574l1.548-1.424l-0.678-0.1L24.55,51.493l-0.834,12.484l-0.02,0.619l1.454-1.335l0.031-0.029
		l9.415-8.639c0.008-0.01,0.016-0.015,0.022-0.023V54.574z"/>
</g>
<g>
	<polygon fill="#FFFFFF" points="32.087,19.507 31.692,19.637 32.781,20.349 32.909,20.431 39.277,24.597 39.347,24.644 
		40.371,25.312 40.283,24.933 38.537,17.477 	"/>
	<path fill="#FFFFFF" d="M44.238,20.748l4.739-7.246l0.029-0.044l0.779-1.193l-0.428,0.105l-7.627,1.407l0.234,2.163
		c0.013,0.129-0.02,0.252-0.087,0.354c-0.067,0.104-0.169,0.185-0.291,0.223l-2.078,0.653l1.768,7.553l0.103,0.393l0.754-1.152
		l0.04-0.061L44.238,20.748"/>
	<path fill="#FFFFFF" d="M31.947,18.494l8.975-2.822L39.91,6.318l-0.053-0.371l-0.7,1.071l-6.872,10.505
		c-0.008,0.013-0.017,0.024-0.022,0.036l-0.669,1.049L31.947,18.494z"/>
	<path fill="#FFFFFF" d="M41.929,6.33l-1.078-0.705l0.042,0.417l0.726,6.721l7.531-1.389l0.37-0.08l-1.011-0.66l-0.021-0.015
		l-6.545-4.28c-0.006-0.004-0.011-0.007-0.016-0.01L41.929,6.33z"/>
</g>
</svg>
