<?xml version="1.0" encoding="utf-8"?>
<!-- Generator: Adobe Illustrator 16.0.0, SVG Export Plug-In . SVG Version: 6.00 Build 0)  -->
<!DOCTYPE svg PUBLIC "-//W3C//DTD SVG 1.1//EN" "http://www.w3.org/Graphics/SVG/1.1/DTD/svg11.dtd">
<svg version="1.1" id="Layer_1" xmlns="http://www.w3.org/2000/svg" xmlns:xlink="http://www.w3.org/1999/xlink" x="0px" y="0px"
	 width="162.429px" height="52.025px" viewBox="0 0 162.429 52.025" enable-background="new 0 0 162.429 52.025"
	 xml:space="preserve">
<g>
	<g>
		<polygon fill="#548FB3" points="13.075,39.073 25.395,23.322 32.052,18.349 38.021,19.648 		"/>
		<polygon fill="#548FB3" points="13.075,39.852 39.092,20.031 35.802,29.061 		"/>
		<polygon fill="#548FB3" points="7.565,38.396 19.502,29.597 13.075,37.621 		"/>
		<polygon fill="#548FB3" points="3.343,42.073 6.328,39.396 10.383,38.619 		"/>
		<polygon fill="#376175" points="46.51,15.747 44.521,17.353 46.051,18.349 50.414,17.583 		"/>
		<polygon fill="#548FB3" points="33.2,17.736 35.419,13.91 40.929,12.028 44.832,13.833 45.521,15.364 42.689,17.047 
			44.985,18.349 44.066,20.031 		"/>
		<polygon fill="#376175" points="20.115,37.172 36.574,29.941 40.243,20.098 44.066,20.644 42.918,30.516 30.063,39.073 		"/>
	</g>
	<g>
		
			<linearGradient id="SVGID_1_" gradientUnits="userSpaceOnUse" x1="-27.886" y1="-10.3699" x2="70.2554" y2="-11.5756" gradientTransform="matrix(1 0 0 -1 86.3999 16.1255)">
			<stop  offset="0" style="stop-color:#548FB3"/>
			<stop  offset="1" style="stop-color:#376175"/>
		</linearGradient>
		<polygon fill="url(#SVGID_1_)" points="59.533,19.578 62.759,19.578 62.759,36.643 65.793,36.643 65.793,19.578 69.004,19.578 
			69.004,16.528 59.533,16.528 		"/>
		
			<linearGradient id="SVGID_2_" gradientUnits="userSpaceOnUse" x1="-27.8816" y1="-10.2712" x2="70.2454" y2="-11.4767" gradientTransform="matrix(1 0 0 -1 86.3999 16.1255)">
			<stop  offset="0" style="stop-color:#548FB3"/>
			<stop  offset="1" style="stop-color:#376175"/>
		</linearGradient>
		<path fill="url(#SVGID_2_)" d="M80.995,24.249v-2.921c0-1.455-0.347-2.591-1.044-3.403c-0.792-0.931-2.032-1.396-3.724-1.396
			h-4.783v20.114h3.034v-7.578h1.75c0.097,0,0.187,0,0.271,0l1.84,7.578h3.281l-2.247-8.782
			C80.454,26.876,80.995,25.672,80.995,24.249z M78.041,24.313c0,0.481-0.169,0.895-0.505,1.236
			c-0.337,0.342-0.747,0.513-1.229,0.513h-1.83v-6.437h1.83c1.155,0,1.732,0.584,1.732,1.75L78.041,24.313L78.041,24.313z"/>
		
			<linearGradient id="SVGID_3_" gradientUnits="userSpaceOnUse" x1="-27.8826" y1="-10.0999" x2="70.2611" y2="-11.3055" gradientTransform="matrix(1 0 0 -1 86.3999 16.1255)">
			<stop  offset="0" style="stop-color:#548FB3"/>
			<stop  offset="1" style="stop-color:#376175"/>
		</linearGradient>
		<path fill="url(#SVGID_3_)" d="M87.48,16.528l-3.42,20.114h3.159l0.736-4.624h3.168l0.709,4.624h3.19l-3.371-20.114H87.48z
			 M88.427,29.064l1.122-7.93l1.125,7.93H88.427z"/>
		
			<linearGradient id="SVGID_4_" gradientUnits="userSpaceOnUse" x1="-27.8816" y1="-9.9265" x2="70.2661" y2="-11.1323" gradientTransform="matrix(1 0 0 -1 86.3999 16.1255)">
			<stop  offset="0" style="stop-color:#548FB3"/>
			<stop  offset="1" style="stop-color:#376175"/>
		</linearGradient>
		<polygon fill="url(#SVGID_4_)" points="100.12,32.207 97.593,16.528 94.415,16.528 98.01,36.643 102.183,36.643 105.843,16.528 
			102.662,16.528 		"/>
		
			<linearGradient id="SVGID_5_" gradientUnits="userSpaceOnUse" x1="-27.8835" y1="-9.7869" x2="70.2677" y2="-10.9927" gradientTransform="matrix(1 0 0 -1 86.3999 16.1255)">
			<stop  offset="0" style="stop-color:#548FB3"/>
			<stop  offset="1" style="stop-color:#376175"/>
		</linearGradient>
		<polygon fill="url(#SVGID_5_)" points="108.379,36.643 117.015,36.643 117.015,33.592 111.414,33.592 111.414,28.102 
			115.506,28.102 115.506,25.052 111.414,25.052 111.414,19.563 117.015,19.563 117.015,16.512 108.379,16.512 		"/>
		
			<linearGradient id="SVGID_6_" gradientUnits="userSpaceOnUse" x1="-27.8645" y1="-9.697" x2="70.2605" y2="-10.9025" gradientTransform="matrix(1 0 0 -1 86.3999 16.1255)">
			<stop  offset="0" style="stop-color:#548FB3"/>
			<stop  offset="1" style="stop-color:#376175"/>
		</linearGradient>
		<polygon fill="url(#SVGID_6_)" points="122.136,16.528 119.103,16.528 119.103,36.643 127.37,36.643 127.37,33.624 
			122.136,33.624 		"/>
		
			<linearGradient id="SVGID_7_" gradientUnits="userSpaceOnUse" x1="-27.885" y1="-9.5691" x2="70.2718" y2="-10.775" gradientTransform="matrix(1 0 0 -1 86.3999 16.1255)">
			<stop  offset="0" style="stop-color:#548FB3"/>
			<stop  offset="1" style="stop-color:#376175"/>
		</linearGradient>
		<rect x="129.456" y="16.528" fill="url(#SVGID_7_)" width="3.034" height="20.114"/>
		
			<linearGradient id="SVGID_8_" gradientUnits="userSpaceOnUse" x1="-27.8801" y1="-9.4431" x2="70.2714" y2="-10.649" gradientTransform="matrix(1 0 0 -1 86.3999 16.1255)">
			<stop  offset="0" style="stop-color:#548FB3"/>
			<stop  offset="1" style="stop-color:#376175"/>
		</linearGradient>
		<polygon fill="url(#SVGID_8_)" points="134.929,19.578 138.156,19.578 138.156,36.643 141.189,36.643 141.189,19.578 
			144.4,19.578 144.4,16.528 134.929,16.528 		"/>
		
			<linearGradient id="SVGID_9_" gradientUnits="userSpaceOnUse" x1="-27.8674" y1="-9.2781" x2="70.2707" y2="-10.4837" gradientTransform="matrix(1 0 0 -1 86.3999 16.1255)">
			<stop  offset="0" style="stop-color:#548FB3"/>
			<stop  offset="1" style="stop-color:#376175"/>
		</linearGradient>
		<polygon fill="url(#SVGID_9_)" points="154.304,16.512 152.073,23.736 149.826,16.512 146.486,16.512 150.548,28.213 
			150.548,36.643 153.583,36.643 153.583,28.213 157.658,16.512 		"/>
	</g>
</g>
</svg>
