<?xml version="1.0" encoding="utf-8"?>
<!-- Generator: Adobe Illustrator 16.0.0, SVG Export Plug-In . SVG Version: 6.00 Build 0)  -->
<!DOCTYPE svg PUBLIC "-//W3C//DTD SVG 1.1//EN" "http://www.w3.org/Graphics/SVG/1.1/DTD/svg11.dtd">
<svg version="1.1" id="Layer_1" xmlns="http://www.w3.org/2000/svg" xmlns:xlink="http://www.w3.org/1999/xlink" x="0px" y="0px"
	 width="935.953px" height="102.5px" viewBox="0 0 935.953 102.5" enable-background="new 0 0 935.953 102.5" xml:space="preserve">
<g>
	<g>
		<g>
			<path fill-rule="evenodd" clip-rule="evenodd" fill="#FFFFFF" d="M923.899,118.815c-29.783,0-59.563,0-89.344,0
				c-0.015-0.119-0.037-0.237-0.037-0.354c-0.001-4.736-0.001-9.471,0-14.209c0-0.132,0.026-0.264,0.045-0.439
				c0.256,0,0.479,0,0.701,0c1.165-0.009,2.331,0.012,3.495-0.036c0.915-0.037,0.99-0.142,1.2-1.089
				c0.591-2.639,1.193-5.275,1.76-7.922c0.099-0.471,0.25-0.647,0.729-0.65c1.878-0.012,3.759-0.078,5.636-0.125
				c0.18-0.004,0.357-0.029,0.517-0.039c0-21.77,0-43.461,0-65.204c-2.211,0-4.387,0-6.599,0c-0.551-2.435-1.09-4.831-1.628-7.212
				c1.21-0.457,74.926-0.797,77.73-0.378c-0.582,2.536-1.165,5.063-1.752,7.61c-2.235,0-4.393,0-6.579,0c0,21.749,0,43.457,0,65.184
				c0.166,0.016,0.294,0.035,0.423,0.036c1.88,0.05,3.76,0.117,5.639,0.126c0.518,0.002,0.698,0.191,0.81,0.705
				c0.597,2.74,1.253,5.467,1.839,8.209c0.126,0.594,0.385,0.77,0.908,0.764c1.278-0.011,2.557,0.011,3.834,0.021
				c0.199,0.004,0.398,0.021,0.639,0.033c0,0.293,0,0.529,0,0.766c0,4.457,0,8.912,0.001,13.369
				C923.866,118.258,923.887,118.537,923.899,118.815z M858.172,46.16c14.118,0,28.204,0,42.314,0c0-1.732,0-3.42,0-5.123
				c-14.123,0-28.211,0-42.314,0C858.172,42.762,858.172,44.451,858.172,46.16z"/>
			<polygon fill-rule="evenodd" clip-rule="evenodd" fill="#FFFFFF" points="839.812,18.605 848.908,5.851 909.876,5.851 
				918.997,18.605 			"/>
		</g>
		<rect x="858.374" y="53.01" fill-rule="evenodd" clip-rule="evenodd" fill="#517FA6" width="42.026" height="27.469"/>
	</g>
	<rect x="845.633" y="92.204" fill-rule="evenodd" clip-rule="evenodd" fill="#517FA6" width="65.771" height="1.798"/>
</g>
<g>
	<g>
		<g>
			<path fill-rule="evenodd" clip-rule="evenodd" fill="#FFFFFF" d="M24.83,71.287c0.042,0.215,0.084,0.327,0.084,0.439
				c0.005,8.25,0.011,16.5-0.016,24.749c-0.001,0.233-0.321,0.582-0.568,0.675c-1.281,0.476-2.605,0.841-3.871,1.355
				c-0.303,0.123-0.586,0.651-0.615,1.017c-0.083,1.01,0.076,2.045-0.056,3.044c-0.172,1.321,0.483,1.956,1.55,2.462
				c2.383,1.131,4.929,1.633,7.511,1.928c7.186,0.824,14.381,0.817,21.544-0.192c1.955-0.273,3.852-0.987,5.763-1.544
				c0.634-0.185,0.896-0.657,0.871-1.374c-0.055-1.523-0.047-3.049,0.002-4.572c0.021-0.625-0.196-0.914-0.78-1.073
				c-1.315-0.358-2.618-0.766-3.896-1.143c0-8.6,0-17.156,0-25.771c1.009,0,1.933,0.007,2.857-0.001
				c1.063-0.01,1.582-0.511,1.61-1.592c0.026-1.016,0.045-2.035,0.001-3.048c-0.028-0.65,0.149-0.937,0.846-0.884
				c0.683,0.052,1.375,0.012,2.062,0.006c1.41-0.014,1.893-0.487,1.896-1.873c0.005-2.332,0.004-4.664,0.001-6.996
				c-0.002-1.442-0.473-1.898-1.953-1.901c-0.916-0.004-1.832-0.002-2.789-0.002c-0.023-0.376-0.049-0.639-0.055-0.901
				c-0.03-1.466-0.394-1.821-1.886-1.825c-0.858-0.001-1.716,0-2.692,0c0-0.866,0-1.621,0-2.173
				c-4.637,0.263-9.162,0.716-13.688,0.716c-4.52,0.001-9.039-0.451-13.65-0.71c0,0.583,0,1.315,0,2.167
				c-1.194,0-2.292-0.017-3.389,0.004c-0.969,0.02-1.483,0.541-1.52,1.499C19.988,54.15,20,54.529,20,54.998
				c-1.19,0-2.259-0.02-3.329,0.004c-1.087,0.023-1.645,0.596-1.649,1.677c-0.008,2.479-0.011,4.961,0.001,7.442
				c0.005,1.051,0.545,1.602,1.592,1.639c0.806,0.027,1.616,0.049,2.42-0.003c0.721-0.045,1.033,0.164,0.979,0.939
				c-0.062,0.892-0.02,1.793-0.012,2.688c0.011,1.377,0.527,1.896,1.885,1.902C22.866,71.291,23.842,71.287,24.83,71.287z"/>
			<path fill-rule="evenodd" clip-rule="evenodd" fill="#FFFFFF" d="M24.83,71.287c-0.988,0-1.964,0.004-2.942,0
				c-1.358-0.007-1.874-0.525-1.885-1.902c-0.008-0.896-0.05-1.797,0.012-2.688c0.054-0.775-0.259-0.984-0.979-0.939
				c-0.804,0.052-1.615,0.03-2.42,0.003c-1.047-0.037-1.586-0.588-1.592-1.639c-0.012-2.481-0.01-4.963-0.001-7.442
				c0.004-1.081,0.562-1.653,1.649-1.677c1.069-0.023,2.139-0.004,3.329-0.004c0-0.469-0.012-0.848,0.003-1.226
				c0.037-0.958,0.551-1.479,1.52-1.499c1.097-0.021,2.195-0.004,3.389-0.004c0-0.852,0-1.584,0-2.167
				c4.611,0.259,9.131,0.711,13.65,0.71c4.526,0,9.052-0.453,13.688-0.716c0,0.552,0,1.307,0,2.173c0.976,0,1.834-0.001,2.692,0
				c1.492,0.004,1.855,0.359,1.886,1.825c0.006,0.263,0.032,0.525,0.055,0.901c0.957,0,1.874-0.002,2.789,0.002
				c1.48,0.003,1.951,0.459,1.953,1.901c0.003,2.332,0.004,4.664-0.001,6.996c-0.002,1.386-0.485,1.859-1.896,1.873
				c-0.687,0.006-1.378,0.046-2.062-0.006c-0.697-0.053-0.874,0.233-0.846,0.884c0.044,1.013,0.025,2.032-0.001,3.048
				c-0.028,1.081-0.547,1.582-1.61,1.592c-0.924,0.008-1.848,0.001-2.857,0.001c0,8.614,0,17.171,0,25.771
				c1.278,0.377,2.581,0.784,3.896,1.143c0.583,0.159,0.801,0.448,0.78,1.073c-0.049,1.523-0.057,3.049-0.002,4.572
				c0.026,0.717-0.237,1.189-0.871,1.374c-1.911,0.557-3.808,1.271-5.763,1.544c-7.164,1.01-14.358,1.017-21.544,0.192
				c-2.582-0.295-5.128-0.797-7.511-1.928c-1.067-0.506-1.722-1.141-1.55-2.462c0.131-0.999-0.028-2.034,0.056-3.044
				c0.029-0.365,0.313-0.894,0.615-1.017c1.265-0.515,2.589-0.88,3.871-1.355c0.247-0.093,0.567-0.441,0.568-0.675
				c0.027-8.249,0.021-16.499,0.016-24.749C24.914,71.614,24.873,71.502,24.83,71.287z M48.619,66.196
				c0.056-5.685-4.468-10.315-10.128-10.366c-5.704-0.051-10.361,4.457-10.415,10.084C28.02,71.684,32.5,76.31,38.203,76.369
				C43.947,76.431,48.562,71.925,48.619,66.196z"/>
			<path fill-rule="evenodd" clip-rule="evenodd" fill="#FFFFFF" d="M35.428,22.005c0-0.806-0.006-1.544,0.001-2.284
				c0.012-1.375,0.749-2.188,2.107-2.273c0.714-0.044,1.437-0.044,2.151,0.005c1.168,0.08,1.846,0.805,1.882,1.979
				c0.025,0.829,0.005,1.66,0.005,2.625c0.509,0,0.914-0.002,1.32,0.001c1.579,0.012,2.599,0.907,2.539,2.467
				c-0.038,1.035,0.332,1.544,1.187,2.091c4.023,2.583,6.402,6.249,6.972,11.048c0.034,0.285,0.356,0.644,0.635,0.775
				c0.994,0.472,2.078,0.769,3.037,1.298c2.2,1.214,2.239,2.839-0.042,3.912c-1.896,0.894-3.943,1.609-6,1.988
				c-8.967,1.653-17.948,1.641-26.882-0.301c-1.444-0.313-2.833-0.912-4.222-1.444c-0.488-0.188-0.941-0.531-1.336-0.885
				c-0.974-0.87-1.03-1.91,0.045-2.645c1.091-0.744,2.341-1.287,3.578-1.776c0.642-0.253,0.928-0.528,1.017-1.225
				c0.624-4.934,3.225-8.576,7.424-11.135c0.397-0.242,0.704-0.424,0.713-0.993c0.037-2.429,0.765-3.131,3.163-3.179
				C34.901,22.05,35.079,22.03,35.428,22.005z"/>
			<path fill-rule="evenodd" clip-rule="evenodd" fill="#517FA6" d="M48.619,66.196c-0.057,5.729-4.671,10.234-10.416,10.173
				C32.5,76.31,28.02,71.684,28.075,65.914c0.054-5.627,4.711-10.135,10.415-10.084C44.15,55.881,48.675,60.512,48.619,66.196z
				 M43.35,66.181c0.042-2.792-2.15-5.06-4.923-5.094c-2.783-0.035-5.075,2.178-5.104,4.928c-0.029,2.747,2.153,5.04,4.848,5.094
				C41.033,71.164,43.308,69.001,43.35,66.181z"/>
			<path fill-rule="evenodd" clip-rule="evenodd" fill="#FFFFFF" d="M43.35,66.181c-0.042,2.82-2.317,4.983-5.179,4.928
				c-2.695-0.054-4.877-2.347-4.848-5.094c0.029-2.75,2.322-4.963,5.104-4.928C41.2,61.121,43.392,63.389,43.35,66.181z"/>
		</g>
	</g>
</g>
</svg>
