<?xml version="1.0" encoding="utf-8"?>
<!-- Generator: Adobe Illustrator 16.0.0, SVG Export Plug-In . SVG Version: 6.00 Build 0)  -->
<!DOCTYPE svg PUBLIC "-//W3C//DTD SVG 1.1//EN" "http://www.w3.org/Graphics/SVG/1.1/DTD/svg11.dtd">
<svg version="1.1" id="Layer_1" xmlns="http://www.w3.org/2000/svg" xmlns:xlink="http://www.w3.org/1999/xlink" x="0px" y="0px"
	 width="20.625px" height="18.667px" viewBox="0 0 20.625 18.667" enable-background="new 0 0 20.625 18.667" xml:space="preserve">
<g>
	<g id="Icon-Star" transform="translate(126.000000, 225.000000)">
		<path id="Fill-5" fill="#F78F1E" stroke="#F78F1E" stroke-width="0.5" stroke-miterlimit="10" d="M-109.908-206.756
			c-0.078,0-0.195-0.039-0.273-0.076l-5.252-3.803l-5.251,3.803c-0.158,0.117-0.393,0.117-0.549,0
			c-0.156-0.119-0.236-0.354-0.156-0.511l1.999-6.153l-5.253-3.801c-0.158-0.118-0.234-0.354-0.158-0.511
			c0.08-0.194,0.237-0.314,0.433-0.314h6.467l2-6.152c0.077-0.196,0.234-0.314,0.43-0.314c0.197,0,0.392,0.118,0.432,0.314l2,6.152
			h6.468c0.195,0,0.393,0.12,0.43,0.314c0.08,0.196,0,0.393-0.155,0.511l-5.252,3.801l1.998,6.153c0.079,0.196,0,0.394-0.155,0.511
			C-109.711-206.793-109.829-206.756-109.908-206.756L-109.908-206.756z M-115.435-211.733c0.078,0,0.197,0.041,0.274,0.079
			l4.353,3.134l-1.646-5.095c-0.079-0.194,0-0.392,0.157-0.511l4.353-3.135h-5.373c-0.195,0-0.392-0.118-0.431-0.313l-1.645-5.097
			l-1.647,5.097c-0.08,0.195-0.236,0.313-0.433,0.313h-5.408l4.351,3.135c0.156,0.119,0.234,0.354,0.156,0.511l-1.646,5.095
			l4.351-3.134C-115.631-211.692-115.513-211.733-115.435-211.733L-115.435-211.733z"/>
	</g>
</g>
<path fill="#F78F1E" stroke="#F78F1E" stroke-width="0.5" stroke-miterlimit="10" d="M14.25,11.208"/>
<polygon fill="#F78F1E" stroke="#F78F1E" stroke-width="0.5" stroke-miterlimit="10" points="5.5,16.521 10.313,13.771 15.5,16.521 
	13.702,10.875 18.5,7.708 12.938,7.333 10.606,2.33 8,7.74 2.125,7.771 7.625,11.385 "/>
</svg>
