<?xml version="1.0" encoding="utf-8"?>
<!-- Generator: Adobe Illustrator 16.0.0, SVG Export Plug-In . SVG Version: 6.00 Build 0)  -->
<!DOCTYPE svg PUBLIC "-//W3C//DTD SVG 1.1//EN" "http://www.w3.org/Graphics/SVG/1.1/DTD/svg11.dtd">
<svg version="1.1" id="Layer_1" xmlns="http://www.w3.org/2000/svg" xmlns:xlink="http://www.w3.org/1999/xlink" x="0px" y="0px"
	 width="35.43px" height="34px" viewBox="0 0 35.43 34" enable-background="new 0 0 35.43 34" xml:space="preserve">
<g>
	<path fill="#548FB3" d="M5.042,11.378h0.862v4.818H5.042c-0.475,0-0.861-0.358-0.861-0.804V12.18
		C4.18,11.739,4.567,11.378,5.042,11.378z M30.388,11.378h-0.861v4.818h0.861c0.475,0,0.861-0.358,0.861-0.804V12.18
		C31.25,11.739,30.863,11.378,30.388,11.378z M28.041,9.771v14.457c0,0.889-0.77,1.606-1.721,1.606v1.606
		c0,0.889-0.77,1.606-1.721,1.606h-1.723c-0.949,0-1.721-0.72-1.721-1.606v-1.606h-6.884v1.606c0,0.889-0.769,1.606-1.721,1.606
		h-1.721c-0.953,0-1.723-0.72-1.723-1.606v-1.606c-0.95,0-1.72-0.72-1.72-1.606V9.771c0-2.661,2.313-4.819,5.163-4.819h10.327
		C25.728,4.952,28.041,7.109,28.041,9.771z M14.272,8.165h6.884V6.559h-6.884V8.165z M12.552,22.622
		c0-0.889-0.769-1.606-1.721-1.606c-0.953,0-1.723,0.719-1.723,1.606s0.77,1.607,1.723,1.607
		C11.783,24.229,12.552,23.509,12.552,22.622z M26.32,22.622c0-0.889-0.77-1.606-1.721-1.606s-1.721,0.719-1.721,1.606
		s0.771,1.607,1.721,1.607C25.552,24.229,26.32,23.509,26.32,22.622z M26.32,9.771H9.108v9.638H26.32V9.771L26.32,9.771z"/>
</g>
</svg>
