<?xml version="1.0" encoding="utf-8"?>
<!-- Generator: Adobe Illustrator 16.0.0, SVG Export Plug-In . SVG Version: 6.00 Build 0)  -->
<!DOCTYPE svg PUBLIC "-//W3C//DTD SVG 1.1//EN" "http://www.w3.org/Graphics/SVG/1.1/DTD/svg11.dtd">
<svg version="1.1" id="Layer_1" xmlns="http://www.w3.org/2000/svg" xmlns:xlink="http://www.w3.org/1999/xlink" x="0px" y="0px"
	 width="35.43px" height="34px" viewBox="0 0 35.43 34" enable-background="new 0 0 35.43 34" xml:space="preserve">
<g>
	<g>
		<g id="Icon-Comment" transform="translate(328.000000, 480.000000)">
			<path id="Fill-59" fill="#3271A5" d="M-317.094-451h-1.297l0.779-1.093c0.571-0.833,0.985-1.821,1.195-3.122
				c-3.692-1.664-5.67-4.785-5.67-8.895c0-6.293,4.733-10.195,12.379-10.195c7.647,0,12.379,3.902,12.379,10.195
				c0,6.346-4.628,10.193-12.379,10.193c-0.154,0-0.362,0-0.519,0C-311.477-452.561-313.555-451-317.094-451L-317.094-451z
				 M-309.812-472.952c-6.917,0-11.025,3.278-11.025,8.844c0,4.732,2.911,6.865,5.304,7.855l0.471,0.207l-0.053,0.518
				c-0.156,1.197-0.418,2.238-0.833,3.123c2.496-0.313,3.953-1.563,4.733-2.602l0.207-0.261h0.469c0.208,0,0.47,0,0.678,0
				c9.935,0,11.026-6.188,11.026-8.843C-298.783-469.621-302.891-472.952-309.812-472.952L-309.812-472.952z"/>
		</g>
	</g>
	<g>
		<g id="Icon-User_5_" transform="translate(278.000000, 278.000000)">
			<path id="Fill-58_5_" fill="#3271A5" d="M-265.968-253.974l-0.99-0.454c0.289-0.701,1.196-1.07,2.229-1.525
				c0.99-0.453,2.228-0.99,2.228-1.649v-0.907c-0.372-0.289-0.949-0.947-1.032-1.898c-0.288-0.287-0.743-0.824-0.743-1.484
				c0-0.413,0.166-0.742,0.29-0.949c-0.083-0.453-0.247-1.361-0.247-2.063c0-2.27,1.566-3.754,4.043-3.754
				c0.699,0,1.566,0.207,2.021,0.701c1.114,0.207,2.022,1.526,2.022,3.053c0,0.99-0.166,1.814-0.288,2.188
				c0.122,0.206,0.246,0.494,0.246,0.824c0,0.783-0.371,1.279-0.743,1.525c-0.082,0.951-0.618,1.568-0.946,1.857v0.907
				c0,0.577,1.03,0.948,1.979,1.321c1.113,0.412,2.27,0.826,2.642,1.772l-1.031,0.371c-0.166-0.495-1.154-0.826-1.98-1.153
				c-1.28-0.455-2.724-0.99-2.724-2.313v-1.484l0.247-0.164c0.042,0,0.742-0.496,0.742-1.445v-0.371l0.332-0.125
				c0.043-0.041,0.371-0.207,0.371-0.701c0-0.165-0.123-0.33-0.164-0.371l-0.207-0.248l0.083-0.289c0,0,0.288-0.906,0.288-2.145
				c0-1.033-0.576-1.981-1.196-1.981h-0.329l-0.165-0.289c-0.124-0.206-0.618-0.413-1.276-0.413c-1.859,0-2.973,0.991-2.973,2.684
				c0,0.783,0.288,2.062,0.288,2.062l0.082,0.289l-0.207,0.207c0,0-0.164,0.206-0.164,0.413c0,0.289,0.37,0.66,0.534,0.824
				l0.208,0.164v0.291c0,0.906,0.783,1.402,0.783,1.402l0.249,0.165v1.485c0,1.361-1.528,2.063-2.889,2.639
				C-264.936-254.674-265.801-254.261-265.968-253.974"/>
		</g>
	</g>
	<polygon fill="#3271A5" points="12.359,24.516 11.325,23.704 13.146,22.707 15.604,21.502 16.205,20.018 16.205,18.905 
		15.001,18.025 15.001,17.145 14.398,16.217 14.584,15.244 14.398,13.529 14.815,11.118 16.205,10.1 18.293,9.82 19.868,10.887 
		20.842,11.859 21.028,13.807 21.028,15.521 21.028,16.356 20.471,17.348 20.517,18.258 19.498,19.045 19.498,20.157 20.007,21.549 
		21.862,22.104 22.742,22.521 23.901,23.077 24.504,24.026 23.715,24.84 17.551,25.441 16.252,26.139 13.959,27.12 11.71,28.039 
		11.325,26.973 12.312,25.35 	"/>
</g>
</svg>
