<?xml version="1.0" encoding="utf-8"?>
<!-- Generator: Adobe Illustrator 16.0.0, SVG Export Plug-In . SVG Version: 6.00 Build 0)  -->
<!DOCTYPE svg PUBLIC "-//W3C//DTD SVG 1.1//EN" "http://www.w3.org/Graphics/SVG/1.1/DTD/svg11.dtd">
<svg version="1.1" id="Layer_1" xmlns="http://www.w3.org/2000/svg" xmlns:xlink="http://www.w3.org/1999/xlink" x="0px" y="0px"
	 width="35.429px" height="34px" viewBox="0 7.846 35.429 34" enable-background="new 0 7.846 35.429 34" xml:space="preserve">
<g>
	<g>
		<g>
			<path fill="#3271A5" stroke="#FFFFFF" stroke-width="0.25" stroke-miterlimit="10" d="M29.705,30.463
				c-0.123-0.367-0.523-0.571-0.891-0.445l-1.955,0.65l-1.229-3.699c1.01-0.496,1.838-1.285,2.351-2.31
				c0.62-1.237,0.72-2.642,0.261-4.013l-3.213-7.426l-8.542,2.842l0.57,2.322l-7.301-1.578L7.35,24.596
				c-0.293,1.353-0.041,2.738,0.709,3.9c0.62,0.963,1.528,1.658,2.587,2.041l-0.824,3.811L7.81,33.913
				c-0.378-0.076-0.754,0.159-0.835,0.54c-0.082,0.379,0.158,0.752,0.538,0.836l2.692,0.582c0.002,0,0.003,0.001,0.005,0.001
				c0.003,0.001,0.007,0,0.01,0.001l2.692,0.582c0.051,0.011,0.101,0.016,0.149,0.016c0.324,0,0.616-0.226,0.687-0.556
				c0.083-0.38-0.158-0.753-0.539-0.836l-2.012-0.435l0.82-3.795c0.135,0.012,0.27,0.021,0.404,0.021
				c2.418,0,4.544-1.718,5.065-4.141l0.57-4.279l0.375,1.524c0.705,2.12,2.68,3.546,4.913,3.546c0.32,0,0.638-0.038,0.952-0.098
				l1.227,3.688l-1.952,0.648c-0.368,0.123-0.568,0.521-0.446,0.89c0.099,0.295,0.374,0.481,0.668,0.481
				c0.073,0,0.149-0.012,0.223-0.035l5.242-1.744C29.627,31.23,29.827,30.831,29.705,30.463z M16.103,26.489
				c-0.429,1.989-2.478,3.324-4.485,2.889l0,0h-0.001c-0.985-0.212-1.829-0.795-2.375-1.643c-0.546-0.847-0.73-1.855-0.532-2.783
				l2.011-6.498l6.271,1.356L16.103,26.489z M19.783,23.586l-1.62-6.599l6.089-2.025l2.678,6.186
				c0.318,0.957,0.244,1.98-0.206,2.882c-0.451,0.9-1.228,1.572-2.185,1.891c-0.387,0.129-0.789,0.195-1.192,0.195
				C21.72,26.115,20.281,25.077,19.783,23.586z"/>
		</g>
	</g>
	<polygon fill="#3271A5" points="19.118,23.064 27.075,19.224 27.868,23.064 26.868,24.846 25.086,26.012 22.868,26.647 
		20.68,25.793 	"/>
	<polygon fill="#3271A5" points="8.788,22.935 16.893,26.449 14.504,29.559 12.502,29.965 10.455,29.379 8.526,28.115 7.978,26.715 
			"/>
</g>
</svg>
