<?xml version="1.0" encoding="utf-8"?>
<!-- Generator: Adobe Illustrator 16.0.0, SVG Export Plug-In . SVG Version: 6.00 Build 0)  -->
<!DOCTYPE svg PUBLIC "-//W3C//DTD SVG 1.1//EN" "http://www.w3.org/Graphics/SVG/1.1/DTD/svg11.dtd">
<svg version="1.1" id="Layer_1" xmlns="http://www.w3.org/2000/svg" xmlns:xlink="http://www.w3.org/1999/xlink" x="0px" y="0px"
	 width="35.429px" height="34px" viewBox="0 7.846 35.429 34" enable-background="new 0 7.846 35.429 34" xml:space="preserve">
<g>
	<path fill-rule="evenodd" clip-rule="evenodd" fill="#3271A5" stroke="#3271A5" stroke-miterlimit="10" d="M16.204,27.678
		c0-0.675-0.003-1.35,0.003-2.025c0.006-0.68,0.399-1.043,1.156-1.082c2.632-0.142,4.528-1.962,4.423-4.321
		c-0.072-1.634-0.991-2.835-2.601-3.527c-1.615-0.696-3.197-0.544-4.645,0.437c-1.146,0.775-1.738,1.83-1.827,3.123
		c-0.046,0.677-0.502,1.078-1.159,1.034c-0.608-0.042-1.005-0.53-0.951-1.172c0.234-2.87,2.192-5.036,5.233-5.63
		c4.456-0.869,7.905,2.047,8.215,5.337c0.291,3.102-1.949,5.881-5.31,6.494c-0.353,0.063-0.43,0.187-0.424,0.481
		c0.016,0.986,0.006,1.973,0.005,2.959c0,0.445-0.217,0.775-0.668,0.957c-0.375,0.151-0.767,0.118-1.031-0.154
		c-0.199-0.207-0.376-0.503-0.397-0.77c-0.054-0.711-0.018-1.428-0.018-2.141C16.209,27.678,16.207,27.678,16.204,27.678z"/>
	<path fill-rule="evenodd" clip-rule="evenodd" fill="#3271A5" stroke="#3271A5" stroke-miterlimit="10" d="M17.151,33.231
		c0.643-0.01,1.187,0.472,1.187,1.053c0,0.564-0.516,1.041-1.142,1.051c-0.638,0.01-1.152-0.434-1.173-1.012
		C16.002,33.725,16.501,33.242,17.151,33.231z"/>
</g>
</svg>
