<?xml version="1.0" encoding="utf-8"?>
<!-- Generator: Adobe Illustrator 16.0.0, SVG Export Plug-In . SVG Version: 6.00 Build 0)  -->
<!DOCTYPE svg PUBLIC "-//W3C//DTD SVG 1.1//EN" "http://www.w3.org/Graphics/SVG/1.1/DTD/svg11.dtd">
<svg version="1.1" id="Layer_1" xmlns="http://www.w3.org/2000/svg" xmlns:xlink="http://www.w3.org/1999/xlink" x="0px" y="0px"
	 width="35.429px" height="34px" viewBox="0 7.846 35.429 34" enable-background="new 0 7.846 35.429 34" xml:space="preserve">
<path fill="#3271A5" stroke="#FFFFFF" stroke-width="2" stroke-miterlimit="10" d="M13.894,32.238h1.005v-7.261h-1.005
	c-0.556,0-1.006-0.45-1.006-1.006v-2.402c0-0.555,0.45-1.005,1.006-1.005h5.629c0.556,0,1.007,0.45,1.007,1.005v10.669h1.004
	c0.557,0,1.006,0.45,1.006,1.006v2.4c0,0.556-0.449,1.007-1.006,1.007h-7.64c-0.556,0-1.006-0.451-1.006-1.007v-2.4
	C12.888,32.688,13.339,32.238,13.894,32.238z M17.714,13.042c-1.999,0-3.618,1.62-3.618,3.619s1.619,3.62,3.618,3.62
	s3.62-1.621,3.62-3.62S19.713,13.042,17.714,13.042z"/>
</svg>
