<?xml version="1.0" encoding="utf-8"?>
<!-- Generator: Adobe Illustrator 16.0.0, SVG Export Plug-In . SVG Version: 6.00 Build 0)  -->
<!DOCTYPE svg PUBLIC "-//W3C//DTD SVG 1.1//EN" "http://www.w3.org/Graphics/SVG/1.1/DTD/svg11.dtd">
<svg version="1.1" id="Layer_1" xmlns="http://www.w3.org/2000/svg" xmlns:xlink="http://www.w3.org/1999/xlink" x="0px" y="0px"
	 width="35.429px" height="34px" viewBox="0 7.846 35.429 34" enable-background="new 0 7.846 35.429 34" xml:space="preserve">
<g>
	<g>
		<g id="Icon-User_4_" transform="translate(278.000000, 278.000000)">
			<path id="Fill-57_4_" fill="#3271A5" stroke="#3271A5" stroke-width="0.25" stroke-miterlimit="10" d="M-260.285-243.069
				c-5.569,0-10.085-4.515-10.085-10.085c0-5.569,4.516-10.084,10.085-10.084s10.084,4.515,10.084,10.084
				C-250.201-247.584-254.716-243.069-260.285-243.069L-260.285-243.069z M-260.285-262.14c-4.937,0-8.987,4.051-8.987,8.986
				c0,4.938,4.051,8.988,8.987,8.988s8.987-4.051,8.987-8.988C-251.298-258.09-255.349-262.14-260.285-262.14L-260.285-262.14z"/>
			<path id="Fill-58_4_" fill="#3271A5" stroke="#3271A5" stroke-width="0.25" stroke-miterlimit="10" d="M-266.193-245.853
				l-1.013-0.465c0.295-0.717,1.224-1.097,2.278-1.561c1.013-0.465,2.278-1.014,2.278-1.688v-0.929
				c-0.38-0.295-0.97-0.97-1.055-1.94c-0.295-0.296-0.76-0.844-0.76-1.519c0-0.422,0.169-0.76,0.296-0.971
				c-0.085-0.465-0.253-1.393-0.253-2.109c0-2.321,1.603-3.84,4.135-3.84c0.717,0,1.604,0.211,2.067,0.717
				c1.14,0.211,2.067,1.562,2.067,3.123c0,1.012-0.169,1.855-0.295,2.236c0.126,0.211,0.253,0.506,0.253,0.844
				c0,0.801-0.38,1.308-0.76,1.561c-0.084,0.971-0.633,1.604-0.97,1.898v0.929c0,0.591,1.055,0.971,2.024,1.351
				c1.14,0.422,2.321,0.844,2.701,1.814l-1.055,0.379c-0.169-0.506-1.182-0.844-2.025-1.181c-1.309-0.464-2.785-1.013-2.785-2.363
				v-1.519l0.253-0.169c0.042,0,0.76-0.507,0.76-1.478v-0.379l0.338-0.127c0.042-0.042,0.379-0.211,0.379-0.717
				c0-0.169-0.126-0.338-0.168-0.38l-0.211-0.253l0.084-0.296c0,0,0.295-0.929,0.295-2.194c0-1.055-0.59-2.025-1.224-2.025h-0.337
				l-0.169-0.295c-0.127-0.211-0.633-0.422-1.308-0.422c-1.899,0-3.038,1.013-3.038,2.742c0,0.802,0.295,2.109,0.295,2.109
				l0.084,0.296l-0.211,0.211c0,0-0.168,0.211-0.168,0.422c0,0.296,0.379,0.675,0.548,0.845l0.211,0.168v0.295
				c0,0.929,0.802,1.436,0.802,1.436l0.254,0.168v1.52c0,1.393-1.562,2.109-2.954,2.7
				C-265.138-246.571-266.024-246.149-266.193-245.853"/>
		</g>
	</g>
</g>
</svg>
