<?xml version="1.0" encoding="utf-8"?>
<!-- Generator: Adobe Illustrator 16.0.0, SVG Export Plug-In . SVG Version: 6.00 Build 0)  -->
<!DOCTYPE svg PUBLIC "-//W3C//DTD SVG 1.1//EN" "http://www.w3.org/Graphics/SVG/1.1/DTD/svg11.dtd">
<svg version="1.1" id="Layer_1" xmlns="http://www.w3.org/2000/svg" xmlns:xlink="http://www.w3.org/1999/xlink" x="0px" y="0px"
	 width="18.333px" height="16.516px" viewBox="0 0 18.333 16.516" enable-background="new 0 0 18.333 16.516" xml:space="preserve">
<g>
	<polygon fill="#FFFFFF" points="1.766,2.585 1.464,2.344 1.464,3.55 1.464,3.69 1.464,10.735 1.464,10.813 1.464,11.946 
		1.713,11.687 6.606,6.553 	"/>
	<path fill="#FFFFFF" d="M11.092,7.153L9.533,8.431c-0.091,0.075-0.206,0.112-0.32,0.112c-0.113,0-0.227-0.038-0.318-0.112
		l-1.56-1.279L2.379,12.35L2.127,12.63h1.274h0.066h11.51h0.049h1.319l-0.299-0.279L11.092,7.153z"/>
	<path fill="#FFFFFF" d="M2.479,1.962l6.734,5.525l6.736-5.525l0.261-0.229h-1.184H3.402c-0.014,0-0.027,0.001-0.04,0.001
		l-1.15,0.014L2.479,1.962z"/>
	<path fill="#FFFFFF" d="M16.963,3.533l0.001-1.192l-0.302,0.245l-4.842,3.969l4.894,5.133l0.25,0.244v-1.118v-0.021V3.55
		c0-0.006-0.002-0.012-0.002-0.019L16.963,3.533z"/>
</g>
</svg>
