<?xml version="1.0" encoding="utf-8"?>
<!-- Generator: Adobe Illustrator 16.0.0, SVG Export Plug-In . SVG Version: 6.00 Build 0)  -->
<!DOCTYPE svg PUBLIC "-//W3C//DTD SVG 1.1//EN" "http://www.w3.org/Graphics/SVG/1.1/DTD/svg11.dtd">
<svg version="1.1" id="Layer_1" xmlns="http://www.w3.org/2000/svg" xmlns:xlink="http://www.w3.org/1999/xlink" x="0px" y="0px"
	 width="15.833px" height="16.508px" viewBox="0 0 15.833 16.508" enable-background="new 0 0 15.833 16.508" xml:space="preserve">
<g>
	<g>
		<path fill="#FFFFFF" d="M10.829,4.516L10.32,4.006L9.774,3.461C9.581,3.268,9.581,2.953,9.77,2.763l2.496-2.5
			c0.192-0.189,0.501-0.185,0.692,0.007c0.415,0.414,0.827,0.828,1.242,1.241l-3.205,3.206C10.947,4.646,10.891,4.578,10.829,4.516z
			 M6.79,10.188l-3.29,3.29c0.786,0.765,2.739,0.674,4.455-0.164c0.738-0.36,1.407-0.824,2.043-1.307
			c0.633-0.482,1.227-1.015,1.785-1.575c0.557-0.559,1.086-1.157,1.566-1.788c0.483-0.637,0.951-1.306,1.31-2.048
			c0.838-1.713,0.937-3.665,0.171-4.452l-3.287,3.29c0.193,0.521,0.121,1.141-0.249,1.568c-0.451,0.528-0.931,1.029-1.419,1.52
			C9.389,9.01,8.884,9.49,8.36,9.939C7.932,10.309,7.311,10.381,6.79,10.188z M1.629,11.603c0.415,0.413,0.829,0.827,1.242,1.244
			L6.074,9.64c-0.072-0.05-0.14-0.104-0.202-0.169L5.366,8.965L4.818,8.416H4.816C4.624,8.225,4.31,8.225,4.119,8.413L1.622,10.91
			C1.431,11.104,1.435,11.411,1.629,11.603z"/>
	</g>
</g>
</svg>
