<?xml version="1.0" encoding="utf-8"?>
<!-- Generator: Adobe Illustrator 16.0.0, SVG Export Plug-In . SVG Version: 6.00 Build 0)  -->
<!DOCTYPE svg PUBLIC "-//W3C//DTD SVG 1.1//EN" "http://www.w3.org/Graphics/SVG/1.1/DTD/svg11.dtd">
<svg version="1.1" id="Layer_1" xmlns="http://www.w3.org/2000/svg" xmlns:xlink="http://www.w3.org/1999/xlink" x="0px" y="0px"
	 width="35.429px" height="34px" viewBox="0 7.846 35.429 34" enable-background="new 0 7.846 35.429 34" xml:space="preserve">
<g>
	<g>
		<g id="Icon-Search_3_" transform="translate(30.000000, 230.000000)">
			<path id="Fill-1_3_" fill="#3271A5" stroke="#3271A5" stroke-miterlimit="10" d="M-13.97-199.218c-4.191,0-7.64-3.41-7.64-7.641
				c0-4.191,3.409-7.639,7.64-7.639c4.231,0,7.64,3.408,7.64,7.639C-6.37-202.628-9.778-199.218-13.97-199.218L-13.97-199.218z
				 M-13.97-213.362c-3.604,0-6.542,2.938-6.542,6.542c0,3.606,2.938,6.543,6.542,6.543s6.543-2.938,6.543-6.543
				C-7.467-210.423-10.405-213.362-13.97-213.362L-13.97-213.362z"/>
			<polyline id="Fill-2_3_" fill="#3271A5" stroke="#3271A5" stroke-miterlimit="10" points="-3.784,-195.809 -9.112,-201.098 
				-8.251,-201.962 -2.962,-196.634 -3.784,-195.809 			"/>
		</g>
	</g>
</g>
</svg>
